<svg xmlns="http://www.w3.org/2000/svg" viewBox="0 0 32 32">
  <g id="earth" stroke="black" stroke-width="0.7">
    <path d="M30,16A14,14,0,0,0,2.68,11.69,1,1,0,0,0,3.32,13a.89.89,0,0,0,.51,0A.47.47,0,0,0,4,13H5.62a1.22,1.22,0,0,1,1.1.68l1,1.94a3.22,3.22,0,0,0,1.87,1.62,1.26,1.26,0,0,1,.72.62,1.23,1.23,0,0,1,.06.94l-.12.38a1.38,1.38,0,0,1-.30.49L9.59,20a3.23,3.23,0,0,0-.4,4.08l.26.40a1.26,1.26,0,0,1,.08,1.23L9.38,26A12,12,0,0,1,4,16a1,1,0,0,0-2,0A14,14,0,0,0,16,30h0A14,14,0,0,0,30,16ZM11.11,23.37l-.26-.40A1.24,1.24,0,0,1,11,21.41l.33-.33a3.21,3.21,0,0,0,.79-1.26l.12-.38a3.24,3.24,0,0,0-2.05-4.10,1.21,1.21,0,0,1-.71-.62l-1-1.93A3.22,3.22,0,0,0,5.62,11H5.1A11.9,11.9,0,0,1,12,4.69v.76A3.55,3.55,0,0,0,15.55,9a1.57,1.57,0,0,1,1.34.75l.83,1.40a7,7,0,0,0,4.84,3.29l1.36.23h.17a1,1,0,0,0,1-.83,1,1,0,0,0-.82-1.16l-1.37-.22a5,5,0,0,1-3.44-2.35l-.84-1.40A3.58,3.58,0,0,0,15.55,7,1.56,1.56,0,0,1,14,5.45V4.17A12,12,0,0,1,28,16,11.86,11.86,0,0,1,26.92,21l-1.42-.36a4.32,4.32,0,0,0-4.62,1.79,2.3,2.3,0,0,1-1.36,1l-.84.21a4.30,4.30,0,0,0-3.13,3.13L15.23,28a11.87,11.87,0,0,1-4.09-1l.17-.35A3.24,3.24,0,0,0,11.11,23.37Zm6.19,4.56.19-.76a2.31,2.31,0,0,1,1.68-1.68l.83-.21a4.30,4.30,0,0,0,2.54-1.79,2.32,2.32,0,0,1,2.48-1l.89.23A12,12,0,0,1,17.3,27.93Z"/>
  </g>
</svg>
