<svg xmlns="http://www.w3.org/2000/svg" viewBox="0 0 24 24" width="24" height="24" x="0px" y="0px">
    <title>status online</title>
    <g data-name="status online">
        <path d="M19.07,4.93a1,1,0,0,0-1.42,0,1,1,0,0,0,0,1.41,8,8,0,0,1,0,11.3,1,1,0,0,0,.7,1.71,1,1,0,0,0,.71-.29,10,10,0,0,0,0-14.14Z"/>
        <path d="M4,12A7.91,7.91,0,0,1,6.34,6.35a1,1,0,0,0-1.4-1.42,10,10,0,0,0,0,14.14,1,1,0,0,0,1.41,0,1,1,0,0,0,0-1.41A7.91,7.91,0,0,1,4,12Z"/>
        <circle cx="12" cy="12" r="2"/>
        <path d="M16.25,7.76a1,1,0,1,0-1.42,1.4,4,4,0,0,1,0,5.68,1,1,0,0,0,0,1.41,1,1,0,0,0,.7.29,1,1,0,0,0,.71-.3,6,6,0,0,0,0-8.48Z"/>
        <path d="M9.16,7.75a1,1,0,0,0-1.41,0,6,6,0,0,0,0,8.48,1,1,0,0,0,.71.3,1,1,0,0,0,.7-.29,1,1,0,0,0,0-1.41,4,4,0,0,1,0-5.68A1,1,0,0,0,9.16,7.75Z"/>
    </g>
</svg>
